<svg version="1.2" baseProfile="tiny" id="Layer_1" xmlns="http://www.w3.org/2000/svg" xmlns:xlink="http://www.w3.org/1999/xlink" x="0px" y="0px" viewBox="0 0 150 150" overflow="scroll" xml:space="preserve">
<circle cx="75" cy="75" r="75"></circle>
  <circle fill="#FFFFFF" cx="75" cy="75" r="65"></circle>
  <path d="M52.4,109.5H34.8c-4.2,0-6.3,0-7.5-0.8c-1.3-0.9-2.2-2.3-2.3-3.9c-0.1-1.5,0.9-3.3,3-6.9l0,0l38.5-67.5
	c2.1-3.7,3.1-5.5,4.5-6.2s3.1-0.7,4.6,0c1.3,0.7,2.4,2.5,4.5,6.2L89,45.8l0,0c1.5,2.7,2.3,4,2.6,5.4c0.4,1.5,0.4,3.1,0,4.7
	c-0.3,1.4-1.1,2.7-2.6,5.4l-23,40.3c-1.5,2.7-2.3,4.1-3.4,5.1c-1.2,1.1-2.6,1.9-4.1,2.4C57.1,109.5,55.5,109.5,52.4,109.5z
	 M115.1,109.5H94.8c-4.2,0-6.3,0-7.6-0.8c-1.4-0.9-2.2-2.4-2.3-4c-0.1-1.5,1-3.3,3.1-6.9l10.2-17.5c2.1-3.6,3.1-5.4,4.5-6.1
	s3.1-0.7,4.6,0c1.3,0.7,2.4,2.5,4.5,6l0,0L122,97.7c2.1,3.6,3.2,5.5,3.1,6.9c-0.1,1.6-0.9,3.1-2.3,4
	C121.5,109.5,119.4,109.5,115.1,109.5z"></path>
</svg>
