<svg version="1.2" baseProfile="tiny" id="Layer_1" xmlns="http://www.w3.org/2000/svg" xmlns:xlink="http://www.w3.org/1999/xlink" x="0px" y="0px" viewBox="0 0 150 150" overflow="scroll" xml:space="preserve">
<circle fill="#3DC380" cx="75" cy="75" r="75"></circle>
  <circle fill="#FFFFFF" cx="75" cy="75" r="65"></circle>
  <circle fill="#3DC380" cx="123.8" cy="75" r="6.2"></circle>
  <circle fill="#3DC380" cx="26.2" cy="75" r="6.2"></circle>
  <path fill="#3DC380" d="M106.4,92.4c0-5.4-1.1-9.6-3.3-12.8c-2-2.9-5-4.9-9-6.1c2.8-1.3,4.9-3.1,6.3-5.4c1.6-2.6,2.3-6.4,2.3-11.3
	c0-6.3-1.9-11.3-5.6-14.9c-2.8-2.7-6.4-4.3-10.8-5v-8.2c0-1.9-1.5-3.4-3.4-3.4h-3.7c-1.9,0-3.4,1.5-3.4,3.4v8
	c-2.1,0.1-4.1,0.1-6.1,0.1v-8.1c0-1.9-1.5-3.4-3.4-3.4h-3.7c-1.9,0-3.4,1.5-3.4,3.4v8.1c-3.8,0-7.4-0.1-10.7-0.3
	c-1-0.1-1.7,0.2-2.2,1.2c-0.5,0.8-0.7,1.9-0.7,3.3c0,1.3,0.2,2.4,0.7,3.3c0.5,1,1.2,1.4,2.2,1.4c2.6,0,4.3,0.2,5.2,0.5
	c1.1,0.5,1.7,1.6,1.7,3.2v51c0,2.3-0.6,3.7-1.8,4.3c-0.9,0.6-2.6,0.8-5.1,0.6c-1-0.2-1.7,0.2-2.2,1.2c-0.5,0.9-0.7,2.1-0.7,3.4
	s0.2,2.4,0.7,3.3c0.5,1,1.2,1.4,2.2,1.3c3.7-0.2,7.3-0.3,10.7-0.4v7c0,1.9,1.5,3.4,3.4,3.4h3.7c1.9,0,3.4-1.5,3.4-3.4v-7
	c2,0,4,0.1,6.1,0.1v6.9c0,1.9,1.5,3.4,3.4,3.4h3.7c1.9,0,3.4-1.5,3.4-3.4v-6.6c6.1-0.3,10.9-2.2,14.4-5.8
	C104.4,104.7,106.4,99.3,106.4,92.4z M92.5,56.9c0,3.9-1,6.9-3,9.2c-2,2.3-4.9,3.5-8.6,3.5h-16V45.7h16.2c3.5,0,6.1,0.8,8.1,2.4
	C91.4,49.9,92.5,52.9,92.5,56.9z M91.5,102.4c-2.3,1.9-5,2.9-8.1,2.9H64.9V78.8h13.2c6.5,0,11.2,1.2,14.1,3.5
	c2.6,2.1,3.9,5.4,3.9,9.7C96.2,96.6,94.6,100,91.5,102.4z"></path>
</svg>
