<svg version="1.2" baseProfile="tiny" id="Layer_1" xmlns="http://www.w3.org/2000/svg" xmlns:xlink="http://www.w3.org/1999/xlink" x="0px" y="0px" viewBox="0 0 150 150" overflow="scroll" xml:space="preserve">
<circle fill="#F7931A" cx="75" cy="75" r="75"></circle>
  <circle fill="#FFFFFF" cx="75" cy="75" r="65"></circle>
  <path fill="#F7931A" d="M102.1,102c1.5-5.4,1.5-10.1,0.1-13.9c-1.2-3.5-3.7-6.4-7.5-8.7c3.2-0.5,5.8-1.8,7.8-3.8
	c2.3-2.2,4.1-5.9,5.5-10.9c1.7-6.5,1.2-12-1.6-16.7c-2.1-3.5-5.3-6.1-9.7-8l2.2-8.3c0.5-1.9-0.6-3.9-2.5-4.4l-3.8-1
	c-1.9-0.5-3.9,0.6-4.4,2.5L86,37.1c-2.1-0.5-4.2-1-6.3-1.6l2.2-8.3c0.5-1.9-0.6-3.9-2.5-4.4l-3.8-1c-1.9-0.5-3.9,0.6-4.4,2.5
	L69,32.6c-3.9-1.1-7.5-2.2-10.8-3.2c-1-0.4-1.8-0.2-2.6,0.6c-0.7,0.7-1.3,1.8-1.6,3.1c-0.3,1.3-0.4,2.5-0.1,3.5
	c0.2,1.1,0.9,1.8,1.9,2c2.7,0.7,4.4,1.4,5.1,2c1,0.8,1.3,2,0.9,3.7L47.9,96.1c-0.6,2.3-1.6,3.6-3,3.9c-1.1,0.3-2.9,0.1-5.3-0.7
	c-0.9-0.5-1.8-0.3-2.6,0.6c-0.8,0.8-1.3,1.9-1.7,3.2c-0.4,1.4-0.4,2.5-0.1,3.5c0.2,1.1,0.9,1.8,1.9,1.9c3.8,0.8,7.5,1.7,11,2.5
	l-1.9,7.1c-0.5,1.9,0.6,3.9,2.5,4.4l3.8,1c1.9,0.5,3.9-0.6,4.4-2.5l1.9-7.1c2,0.6,4.1,1.1,6.2,1.8l-1.9,7c-0.5,1.9,0.6,3.9,2.5,4.4
	l3.8,1c1.9,0.5,3.9-0.6,4.4-2.5l1.8-6.8c6.3,1.4,11.7,0.8,16.2-1.9C96.8,114,100.2,109,102.1,102z M97.6,62.2
	c-1.1,3.9-2.9,6.8-5.5,8.5c-2.7,1.8-5.9,2.2-9.7,1.2l-16.3-4.4l6.5-24.3l16.5,4.4c3.5,0.9,6,2.5,7.5,4.7
	C98.4,54.8,98.7,58.1,97.6,62.2z M84.3,108.2c-2.9,1.3-5.9,1.5-9,0.7l-18.8-5L63.7,77l13.5,3.6c6.6,1.8,11.1,4.2,13.4,7.4
	c2.1,2.9,2.5,6.5,1.3,11C90.6,103.5,88.1,106.6,84.3,108.2z"></path>
</svg>
