<svg version="1.2" baseProfile="tiny" id="Layer_1" xmlns="http://www.w3.org/2000/svg" xmlns:xlink="http://www.w3.org/1999/xlink" x="0px" y="0px" viewBox="0 0 150 150" overflow="scroll" xml:space="preserve">
<circle fill="#3B5CB5" cx="75" cy="75" r="75"></circle>
  <circle fill="#FFFFFF" cx="75" cy="75" r="65"></circle>
  <path fill="#3C5DB8" d="M47.4,74.6c-0.2,4.5,3.2,8.4,7.7,8.7c0.2,0,0.3,0,0.5,0c4.5,0,8.2-3.7,8.2-8.2s-3.7-8.2-8.2-8.2
	C51.3,66.8,47.7,70.2,47.4,74.6z M16.8,72.5c-1.5-0.1-2.7,1-2.8,2.5s1,2.7,2.5,2.8c1.5,0.1,2.7-1,2.8-2.5
	C19.4,73.8,18.3,72.6,16.8,72.5L16.8,72.5z M46.9,26.9c1.3-0.7,1.8-2.3,1.2-3.6c-0.7-1.3-2.3-1.8-3.6-1.2c-1.3,0.7-1.8,2.2-1.2,3.6
	C44,27,45.6,27.6,46.9,26.9L46.9,26.9z M55.2,41.4c2-1,2.8-3.5,1.8-5.5s-3.5-2.8-5.5-1.8s-2.8,3.5-1.8,5.5
	C50.8,41.6,53.2,42.5,55.2,41.4z M27.2,51.4c1.6,1,3.7,0.6,4.7-1s0.6-3.7-1-4.7c-1.6-1-3.7-0.6-4.7,1l0,0
	C25.2,48.3,25.6,50.4,27.2,51.4z M32.2,71c-2.3-0.1-4.2,1.6-4.3,3.9c-0.1,2.3,1.6,4.2,3.9,4.3s4.2-1.6,4.3-3.9l0,0
	C36.2,73.1,34.5,71.1,32.2,71z M27.7,98.6c-1.7,0.8-2.3,2.9-1.5,4.5c0.8,1.7,2.9,2.3,4.5,1.5c1.7-0.8,2.3-2.9,1.5-4.5l0,0
	C31.4,98.4,29.3,97.7,27.7,98.6L27.7,98.6z M43.6,62.5c2.2,1.5,5.2,0.8,6.7-1.4s0.8-5.2-1.4-6.7s-5.2-0.8-6.7,1.4
	C40.8,58.1,41.4,61.1,43.6,62.5L43.6,62.5z M94.2,41.1c1.9,1.2,4.4,0.7,5.7-1.2c1.2-1.9,0.7-4.4-1.2-5.7c-1.9-1.2-4.4-0.7-5.7,1.2
	l0,0C91.8,37.3,92.3,39.9,94.2,41.1L94.2,41.1z M102.6,26.6c1.2,0.8,2.9,0.5,3.7-0.8c0.8-1.2,0.5-2.9-0.8-3.7
	c-1.2-0.8-2.9-0.5-3.7,0.8C101,24.2,101.4,25.8,102.6,26.6L102.6,26.6z M94.8,66.8c-4.5-0.3-8.4,3.2-8.7,7.7
	c-0.3,4.5,3.2,8.4,7.7,8.7c0.2,0,0.3,0,0.5,0c4.5,0,8.2-3.7,8.2-8.2C102.6,70.6,99.2,67,94.8,66.8L94.8,66.8z M57.9,62
	c1.4,2.8,4.2,4.5,7.3,4.5c4.5,0,8.2-3.7,8.2-8.2c0-1.3-0.3-2.6-0.9-3.7c-2-4.1-7-5.7-11-3.6C57.5,52.9,55.9,57.9,57.9,62L57.9,62z
	 M122.3,51.4c1.7-0.8,2.3-2.9,1.5-4.5c-0.8-1.7-2.9-2.3-4.5-1.5c-1.7,0.8-2.3,2.9-1.5,4.5C118.6,51.6,120.7,52.3,122.3,51.4
	L122.3,51.4z M101.5,54c-2.4,1.2-3.3,4.1-2.1,6.5c1.2,2.4,4.1,3.3,6.5,2.1s3.3-4.1,2.1-6.5C106.8,53.8,103.9,52.8,101.5,54z
	 M74.7,25.4c1.9,0.1,3.5-1.3,3.6-3.2c0.1-1.9-1.3-3.5-3.2-3.6c-1.9-0.1-3.5,1.3-3.6,3.2S72.8,25.3,74.7,25.4L74.7,25.4z M74.7,46.7
	c2.7,0.1,4.9-1.9,5.1-4.6c0.1-2.7-1.9-4.9-4.6-5.1c-2.7-0.1-4.9,1.9-5.1,4.5C69.9,44.2,72,46.5,74.7,46.7
	C74.6,46.7,74.6,46.7,74.7,46.7z M48.5,96c2.4-1.2,3.3-4.1,2.1-6.5s-4.1-3.3-6.5-2.1c-2.4,1.2-3.3,4.1-2.1,6.5
	C43.2,96.2,46.1,97.2,48.5,96z M77.8,53.7c-2.5,3.8-1.4,8.9,2.4,11.4s8.9,1.4,11.4-2.4c2.5-3.8,1.4-8.9-2.4-11.4
	c-1.3-0.9-2.9-1.3-4.5-1.3C81.9,50,79.3,51.4,77.8,53.7z M92.1,88.1c-2-4.1-7-5.7-11-3.6c-4.1,2-5.7,7-3.6,11c2,4.1,7,5.7,11,3.6
	l0,0C92.5,97.1,94.1,92.2,92.1,88.1L92.1,88.1z M106.4,87.5c-2.2-1.5-5.2-0.8-6.7,1.4c-1.5,2.2-0.8,5.2,1.4,6.7
	c2.2,1.5,5.2,0.8,6.7-1.4C109.2,91.9,108.6,88.9,106.4,87.5L106.4,87.5z M122.1,75.1c0.1-2.3-1.6-4.2-3.9-4.3
	c-2.3-0.1-4.2,1.6-4.3,3.9c-0.1,2.3,1.6,4.2,3.9,4.3l0,0C120.1,79.1,122,77.4,122.1,75.1z M133.5,72.2c-1.5-0.1-2.7,1-2.8,2.5
	s1,2.7,2.5,2.8c1.5,0.1,2.7-1,2.8-2.5C136.1,73.6,135,72.3,133.5,72.2z M122.8,98.6c-1.6-1-3.7-0.6-4.7,1s-0.6,3.7,1,4.7
	s3.7,0.6,4.7-1S124.4,99.6,122.8,98.6L122.8,98.6z M47.4,123.4c-1.2-0.8-2.9-0.5-3.7,0.8c-0.8,1.2-0.5,2.9,0.8,3.7
	c1.2,0.8,2.9,0.5,3.7-0.8l0,0C49,125.8,48.6,124.2,47.4,123.4z M103.1,123.1c-1.3,0.7-1.8,2.3-1.2,3.6c0.7,1.3,2.3,1.8,3.6,1.2
	c1.3-0.7,1.8-2.2,1.2-3.6C106,123,104.4,122.4,103.1,123.1L103.1,123.1z M72.2,96.3c2.5-3.8,1.4-8.9-2.4-11.4s-8.9-1.4-11.4,2.4
	s-1.4,8.9,2.4,11.4c1.3,0.9,2.9,1.3,4.5,1.3C68.1,100,70.7,98.6,72.2,96.3z M55.8,108.9c-1.9-1.2-4.4-0.7-5.7,1.2
	c-1.2,1.9-0.7,4.4,1.2,5.7c1.9,1.2,4.4,0.7,5.7-1.2l0,0C58.2,112.7,57.7,110.1,55.8,108.9z M75,124.6c-1.9-0.1-3.5,1.3-3.6,3.2
	c-0.1,1.9,1.3,3.5,3.2,3.6c1.9,0.1,3.5-1.3,3.6-3.2C78.3,126.3,76.8,124.7,75,124.6L75,124.6z M75,103.3c-2.7-0.1-4.9,1.9-5.1,4.6
	c-0.1,2.7,1.9,4.9,4.6,5.1c2.7,0.1,4.9-1.9,5.1-4.5C79.7,105.8,77.7,103.5,75,103.3L75,103.3z M94.8,108.6c-2,1-2.8,3.5-1.8,5.5
	s3.5,2.8,5.5,1.8s2.8-3.5,1.8-5.5C99.3,108.3,96.8,107.5,94.8,108.6L94.8,108.6z"></path>
</svg>
