<svg version="1.2" baseProfile="tiny" id="Layer_1" xmlns="http://www.w3.org/2000/svg" xmlns:xlink="http://www.w3.org/1999/xlink" x="0px" y="0px" viewBox="0 0 150 150" overflow="scroll" xml:space="preserve">
<circle fill="#00BDEF" cx="75" cy="75" r="75"></circle>
  <circle fill="#FFFFFF" cx="75" cy="75" r="65"></circle>
  <path fill="#00BDEF" d="M90.8,36h-35l-2.9,16.2h31.6c15.6,0,20.1,5.7,20,15c-0.1,4.8-2.2,12.9-3.1,15.6c-2.4,7-7.3,15-25.8,15H44.9
	L42.1,114H77c12.3,0,17.5-1.4,23.1-4c12.3-5.7,19.6-17.8,22.6-33.7C127,52.8,121.6,36,90.8,36 M35.2,65.8
	c-10.4,0-11.9,6.8-12.8,10.8c-1.3,5.3-1.7,7.5-1.7,7.5h40.5c10.4,0,11.9-6.8,12.8-10.8c1.3-5.3,1.7-7.5,1.7-7.5H35.2z"></path>
</svg>
