<svg version="1.2" baseProfile="tiny" id="Layer_1" xmlns="http://www.w3.org/2000/svg" xmlns:xlink="http://www.w3.org/1999/xlink" x="0px" y="0px" viewBox="0 0 150 150" overflow="scroll" xml:space="preserve">
<circle fill="#FFDD2C" cx="75" cy="75" r="75"></circle>
  <circle fill="#FFFFFF" cx="75" cy="75" r="65"></circle>
  <path fill="#FFDD2C" d="M114.5,55.7c-1.9-5.2-4.7-9.5-8.3-13.1c-3.7-3.5-8.2-6.2-13.5-8S80.9,32,73.2,32H51.1
	c-1.5,0-2.7,0.4-3.7,1.3s-1.5,2.3-1.5,4.2v31.8H35v11.4h10.9v31.8c0,2,0.5,3.4,1.5,4.2c1,0.9,2.2,1.3,3.7,1.3h20.5
	c7.6,0,14.2-0.8,19.7-2.5s10.2-4.3,14.1-7.8s6.8-8.1,8.9-13.7s3.1-12.4,3.1-20.2C117.4,66.9,116.4,60.9,114.5,55.7z M97.7,87.4
	c-1.1,3.7-2.7,6.8-4.9,9.3c-2.2,2.5-4.9,4.4-8.2,5.6c-3.3,1.2-7.3,1.9-12.1,1.9h-9.1V80.7h10.3V69.3H63.4V45.7h8.8
	c5.4,0,9.7,0.7,13,2.2c3.3,1.4,6,3.4,8.1,6s3.6,5.6,4.6,9.1s1.4,7.3,1.4,11.4C99.3,79.3,98.8,83.6,97.7,87.4z"></path>
</svg>
