<svg version="1.2" baseProfile="tiny" id="Layer_1" xmlns="http://www.w3.org/2000/svg" xmlns:xlink="http://www.w3.org/1999/xlink" x="0px" y="0px" viewBox="0 0 150 150" overflow="scroll" xml:space="preserve">
<circle fill="#333333" cx="75" cy="75" r="75"></circle>
  <circle fill="#4D4D4D" cx="75" cy="75" r="65"></circle>
  <path fill="#FFFFFF" d="M75,133.6L75,133.6c-0.6,0-1.2-0.2-1.7-0.5l-36.6-22.9c-0.5-0.3-0.9-0.7-1.1-1.2c-0.1-0.2-0.2-0.4-0.2-0.6
	c-0.1-0.4-0.1-0.8-0.1-1.2l0,0l0,0c0-0.1,0-0.1,0-0.2l11.9-54.4c0.1-0.5,0.3-0.9,0.6-1.3l24.6-33.6c0.6-0.8,1.5-1.3,2.5-1.3
	s1.9,0.4,2.5,1.3L102,51.3c0.1,0.1,0.1,0.2,0.2,0.3l0,0l0,0c0,0.1,0.1,0.2,0.1,0.2c0.1,0.2,0.2,0.5,0.2,0.7l11.9,54.4
	c0,0.1,0,0.1,0,0.2l0,0l0,0c0.1,0.4,0,0.8-0.1,1.2c-0.1,0.2-0.1,0.4-0.2,0.6c-0.2,0.5-0.6,0.9-1.1,1.2L76.4,133
	C76.2,133.5,75.6,133.6,75,133.6z M49.1,110.7l20.3,12.7l-4.1-12.7H49.1z M84.6,110.7l-4.1,12.7l20.3-12.7H84.6z M71.9,110.7
	l3.1,9.7l3.1-9.7H71.9z M86.5,104.5h19.8L93.6,82.2L86.5,104.5z M69.9,104.5H80l9.4-29.6L75,49.3L60.5,74.9L69.9,104.5z M43.7,104.5
	h19.8l-7.1-22.3L43.7,104.5z M96.2,74.2l8,14.1L99.1,65L96.2,74.2z M50.9,65l-5.1,23.3l8-14.1L50.9,65z M78.1,42.3L92,66.9l4.2-13.2
	L78.1,28.9V42.3z M53.8,53.7L58,66.9l13.9-24.6V28.9L53.8,53.7z"></path>
</svg>
