<svg version="1.2" baseProfile="tiny" id="Layer_1" xmlns="http://www.w3.org/2000/svg" xmlns:xlink="http://www.w3.org/1999/xlink" x="0px" y="0px" viewBox="0 0 150 150" overflow="scroll" xml:space="preserve">
<circle fill="#BEBEBE" cx="75" cy="75" r="75"></circle>
  <circle fill="#343535" cx="75" cy="75" r="65"></circle>
  <g>
	<path fill="#E8E6E6" d="M75,7L75,7L75,7c-0.1,2.5,0.1,4.9,0,7.3c0,13.4,0,26.8,0,40.1c0,1,0.1,1.9-0.1,2.9
		c-13.5,6-26.9,12.2-40.3,18.3c-0.5,0.2-0.9,0.4-1.3,0.7l-0.1,0.1c9.5-15.8,19-31.6,28.6-47.4C66.2,21.6,70.6,14.4,75,7L75,7z
		 M33.4,84.4c13.8,8.2,27.7,16.4,41.5,24.5c0,11.3,0,22.7,0,34C61.1,123.5,47.2,104,33.4,84.4z"></path>
    <path fill="#D6D8DB" d="M75,14.4c0.1-2.4-0.1-4.8,0.1-7.2c4.7,7.6,9.3,15.3,13.9,23c8,13.3,16,26.6,24,39.8
		c1.3,2.2,2.7,4.3,3.9,6.5l-0.2-0.1c-1.5-1-3.3-1.6-4.9-2.4c-9.8-4.4-19.6-8.9-29.4-13.4c-2.5-1.1-4.8-2.3-7.3-3.3
		C75,62.9,75.1,68.4,75,74c0,9,0,18,0,27l-0.2-0.2c-0.1-13,0-26.1,0-39.1c0-1.5-0.1-2.9,0.1-4.4c0.2-1,0.1-1.9,0.1-2.9
		C75,41.1,75,27.7,75,14.4L75,14.4z M74.9,109c0,11.3,0,22.7,0,34c0.2-0.1,0.3-0.3,0.4-0.4c13.8-19.5,27.6-38.9,41.4-58.4
		C102.9,92.5,88.9,100.7,74.9,109z"></path>
    <path fill="#CECECE" d="M34.5,75.6c13.5-6,26.9-12.2,40.4-18.2c-0.2,1.4-0.1,2.9-0.1,4.4c0,13,0,26.1,0,39.1
		c-13.9-8.1-27.7-16.3-41.5-24.5C33.7,76.1,34.1,75.8,34.5,75.6z"></path>
    <path fill="#C0C6CE" d="M75.1,57.4c2.5,1,4.9,2.2,7.3,3.3c9.8,4.4,19.6,8.9,29.4,13.4c1.6,0.8,3.4,1.4,4.9,2.4
		c-13.9,8.3-27.8,16.4-41.7,24.7c0.1-9,0-18,0-27C75,68.5,74.9,62.9,75.1,57.4z"></path>
</g>
</svg>
