<svg version="1.2" baseProfile="tiny" id="Layer_1" xmlns="http://www.w3.org/2000/svg" xmlns:xlink="http://www.w3.org/1999/xlink" x="0px" y="0px" viewBox="0 0 150 150" overflow="scroll" xml:space="preserve">
<circle fill="#BDBDBD" cx="75" cy="75" r="75"></circle>
  <circle fill="#FFFFFF" cx="75" cy="75" r="65"></circle>
  <path fill="#828384" d="M74.7,76.7l-6.8,22.8h36.2c1,0,1.9,0.8,1.9,1.8l0,0v0.6l-3.1,10.9c-0.3,1.1-1.3,1.8-2.4,1.7H45.1l9.3-31.6
	L44,86l2.4-7.2l10.4-3.1l13.1-44.4c0.3-1.1,1.3-1.8,2.4-1.7h14c1,0,1.9,0.8,1.9,1.8l0,0V32L77,69.3l10.4-3.1l-2.2,7.6L74.7,76.7z"></path>
</svg>
