<svg version="1.2" baseProfile="tiny" id="Layer_1" xmlns="http://www.w3.org/2000/svg" xmlns:xlink="http://www.w3.org/1999/xlink" x="0px" y="0px" viewBox="0 0 150 150" overflow="scroll" xml:space="preserve">
<circle fill="#FFFFFF" cx="75" cy="75" r="75"></circle>
  <g>
	<path id="_149931032_1_" fill="#F26822" d="M75,10c-35.9,0-65,29.1-65,65c0,7.2,1.2,14.1,3.3,20.5h19.4V40.8L75,83.1l42.2-42.2
		v54.7h19.5c2.2-6.5,3.3-13.4,3.3-20.5C140.1,39.1,110.9,10,75,10L75,10z"></path>
    <path id="_149931160_1_" fill="#4D4D4D" d="M65.3,92.8L46.8,74.4v34.4h-7h-7H19.5C30.9,127.5,51.5,140,75,140s44.1-12.5,55.6-31.2
		h-13.3h-12.6h-1.5V74.4L84.7,92.8l-9.7,9.7L65.3,92.8L65.3,92.8z"></path>
</g>
  <path fill="#2D2E2E" d="M75,0C33.6,0,0,33.6,0,75s33.6,75,75,75s75-33.6,75-75S116.4,0,75,0z M75,139c-35.3,0-64-28.7-64-64
	s28.7-64,64-64s64,28.7,64,64S110.3,139,75,139z"></path>
</svg>
