<svg version="1.0" id="Layer_1" xmlns="http://www.w3.org/2000/svg" xmlns:xlink="http://www.w3.org/1999/xlink" x="0px" y="0px" viewBox="0 0 150 150" enable-background="new 0 0 150 150" xml:space="preserve">
<circle cx="75" cy="75" r="75"></circle>
  <circle fill="#FFFFFF" cx="75" cy="75" r="65"></circle>
  <path d="M106.5,35c-0.1,0-0.2,0-0.3,0c-1.6,0-3.2,0.6-4.4,1.8L83.2,55.5c-2.4,2.4-2.4,6.4,0,8.8c1.2,1.2,2.8,1.8,4.4,1.8
	c1.6,0,3.2-0.6,4.4-1.8l10.6-10.6v43.4c0,0.6-0.8,0.9-1.2,0.4L51.7,38.1c-1.6-2-3.9-3-6.5-3h-1.8c-4.6,0-8.4,3.8-8.4,8.5v62.9
	c0,4.5,3.5,8.2,7.9,8.5c0.1,0,0.3,0,0.4,0c0.1,0,0.1,0,0.2,0c0,0,0,0,0,0c0,0,0,0,0,0c1.6,0,3.2-0.6,4.4-1.8l18.6-18.6
	c2.4-2.4,2.4-6.4,0-8.8c-2.4-2.4-6.4-2.4-8.8,0L47.3,96.1V52.9c0-0.6,0.8-0.9,1.2-0.4l49.7,59.5c1.6,2,4,3,6.5,3h1.8
	c4.7,0,8.5-3.8,8.5-8.5V43.6C115,38.9,111.2,35,106.5,35z"></path>
</svg>
