<svg version="1.2" baseProfile="tiny" id="Layer_1" xmlns="http://www.w3.org/2000/svg" xmlns:xlink="http://www.w3.org/1999/xlink" x="0px" y="0px" viewBox="0 0 150 150" overflow="scroll" xml:space="preserve">
<circle fill="#E6007A" cx="75" cy="75" r="75"></circle>
  <g>
	<circle fill="#FFFFFF" cx="75" cy="75" r="65"></circle>
</g>
  <g transform="matrix(.107872 0 0 .107872 179.072 65)">
	<path fill="#1E1E1E" d="M-959.9-397.9c-201.1,0.8-363.9,163.6-364.7,364.7c0,40.3,6.5,80.3,19.2,118.5c9.5,26,37.7,40,64.2,32
		c25.6-9.8,39.2-37.8,31-63.9c-10.8-29.8-15.6-61.3-14.2-93c4.4-145.2,125.7-259.4,270.9-255s259.4,125.7,255,270.9
		c-4.1,136-111.2,246.4-247,254.6c0,0-51.2,3.1-76.7,6.2c-9.4,1.3-18.7,3.2-27.9,5.5c-1.3,1.3-3.4,1.3-4.8,0l0,0
		c-0.9-1.2-0.9-2.9,0-4.1l7.9-43.2l48.1-216.2c5.8-27-11.4-53.6-38.4-59.3c-27-5.8-53.6,11.4-59.3,38.4c0,0-114.3,529.3-114.3,534.1
		c-6.5,25.7,9,51.9,34.7,58.4c0.3,0.1,0.6,0.2,0.8,0.2h2.7c25.7,6.7,51.9-8.8,58.5-34.5c0.1-0.4,0.2-0.8,0.3-1.3
		c-0.1-0.8-0.1-1.6,0-2.4c1.4-6.2,15.8-76.7,15.8-76.7c10.9-53.2,53.8-93.9,107.4-102.1c11-1.7,57.4-4.8,57.4-4.8
		c200.3-20,346.5-198.5,326.5-398.8C-625-252.5-776.3-393.1-959.9-397.9L-959.9-397.9z"></path>
    <path fill="#E6007A" d="M-937.8,443c-32.9-6.8-65,14.3-71.9,47.1c-0.1,0.3-0.1,0.6-0.2,0.9c-7.1,32.7,13.6,64.9,46.3,72h0.1h1.7
		c32,7.7,64.2-12,71.9-43.9c0.1-0.2,0.1-0.5,0.2-0.7v-3.3C-884.1,482.1-905.2,450.4-937.8,443L-937.8,443z"></path>
</g>
</svg>
