<svg version="1.2" baseProfile="tiny" id="Layer_1" xmlns="http://www.w3.org/2000/svg" xmlns:xlink="http://www.w3.org/1999/xlink" x="0px" y="0px" viewBox="0 0 150 150" overflow="scroll" xml:space="preserve">
<circle fill="#7950DD" cx="75" cy="75" r="75"></circle>
  <circle fill="#FFFFFF" cx="75" cy="75" r="65"></circle>
  <path fill="#7950DD" d="M100.5,57.7c-1.8-1.1-4.2-1.1-6.3,0l-14.4,8.7L70,72l-14.4,8.7c-1.8,1.1-4.2,1.1-6.3,0l-11.4-6.8
	c-1.8-1.1-3.1-3.2-3.1-5.5V55.1c0-2.3,1.1-4.3,3.1-5.5L49.2,43c1.8-1.1,4.2-1.1,6.3,0l11.3,6.6c1.8,1.1,3.1,3.2,3.1,5.5v8.7l9.8-5.8
	v-8.7c0-2.3-1.1-4.3-3.1-5.5l-21-12.4c-1.8-1.1-4.2-1.1-6.3,0L28.1,43.8c-2,1.1-3.1,3.2-3.1,5.5v25c0,2.3,1.1,4.3,3.1,5.5l21.2,12.4
	c1.8,1.1,4.2,1.1,6.3,0L70,83.7l9.8-5.8l14.4-8.5c1.8-1.1,4.2-1.1,6.3,0l11.3,6.6c1.8,1.1,3.1,3.2,3.1,5.5v13.4
	c0,2.3-1.1,4.3-3.1,5.5l-11.3,6.8c-1.8,1.1-4.2,1.1-6.3,0l-11.3-6.6c-1.8-1.1-3.1-3.2-3.1-5.5v-8.7L70,92.1v8.7
	c0,2.3,1.1,4.3,3.1,5.5l21.2,12.4c1.8,1.1,4.2,1.1,6.3,0l21.2-12.4c1.8-1.1,3.1-3.2,3.1-5.5v-25c0-2.3-1.1-4.3-3.1-5.5L100.5,57.7z"></path>
</svg>
