<svg version="1.2" baseProfile="tiny" id="Layer_1" xmlns="http://www.w3.org/2000/svg" xmlns:xlink="http://www.w3.org/1999/xlink" x="0px" y="0px" viewBox="0 0 150 150" overflow="scroll" xml:space="preserve">
<circle cx="75" cy="75" r="75"></circle>
  <circle fill="#FFFFFF" cx="75" cy="75" r="65"></circle>
  <path d="M119.5,98.2l-14.9,15.9c-0.3,0.3-0.7,0.6-1.1,0.8c-0.4,0.2-0.9,0.3-1.4,0.3H31.7c-0.3,0-0.7-0.1-0.9-0.3
	c-0.3-0.2-0.5-0.4-0.6-0.8c-0.1-0.3-0.2-0.6-0.1-1c0.1-0.3,0.2-0.6,0.4-0.9l14.8-15.9c0.3-0.3,0.7-0.6,1.1-0.8
	c0.4-0.2,0.9-0.3,1.4-0.3h70.4c0.3,0,0.7,0.1,1,0.3c0.3,0.2,0.5,0.4,0.6,0.8c0.1,0.3,0.2,0.7,0.1,1S119.8,98,119.5,98.2z
	 M104.7,66.1c-0.3-0.3-0.7-0.6-1.1-0.8c-0.4-0.2-0.9-0.3-1.4-0.3H31.7c-0.3,0-0.7,0.1-0.9,0.3c-0.3,0.2-0.5,0.4-0.6,0.8
	C30,66.4,30,66.7,30,67c0.1,0.3,0.2,0.6,0.4,0.9l14.8,15.9c0.3,0.3,0.7,0.6,1.1,0.8c0.4,0.2,0.9,0.3,1.4,0.3h70.4
	c0.3,0,0.7-0.1,0.9-0.3c0.3-0.2,0.5-0.4,0.6-0.8c0.1-0.3,0.2-0.6,0.1-1c-0.1-0.3-0.2-0.6-0.4-0.9L104.7,66.1z M31.7,54.7h70.4
	c0.5,0,0.9-0.1,1.4-0.3c0.4-0.2,0.8-0.5,1.1-0.8l14.9-15.9c0.2-0.2,0.4-0.6,0.4-0.9s0-0.7-0.1-1s-0.4-0.6-0.6-0.8
	c-0.3-0.2-0.6-0.3-1-0.3H47.8c-0.5,0-0.9,0.1-1.4,0.3c-0.4,0.2-0.8,0.5-1.1,0.8l-14.8,16c-0.2,0.2-0.4,0.6-0.4,0.9
	c-0.1,0.3,0,0.7,0.1,1s0.4,0.6,0.6,0.8C31.1,54.6,31.4,54.7,31.7,54.7L31.7,54.7z"></path>
</svg>
