<svg version="1.2" baseProfile="tiny" id="Layer_1" xmlns="http://www.w3.org/2000/svg" xmlns:xlink="http://www.w3.org/1999/xlink" x="0px" y="0px" viewBox="0 0 150 150" overflow="scroll" xml:space="preserve">
<circle fill="#090020" cx="75" cy="75" r="75"></circle>
  <circle fill="#FFFFFF" cx="75" cy="75" r="65"></circle>
  <path fill="#090020" d="M115.2,40l-13.5,6.9L36.6,80.1c-0.2-1.7-0.3-3.4-0.3-5.1c0-21.4,17.4-38.8,38.8-38.7
	c6.6,0,13.1,1.7,18.9,4.9l7.7-3.9l1.2-0.6C81.7,21.3,52,26,36.7,47.2c-5.9,8.1-9,17.8-9,27.8c0,1.2,0,2.4,0.1,3.6
	c0.3,3.5-1.6,6.8-4.7,8.3L19,89v9.7l12-6.1l0,0l3.9-2l3.8-1.9l0,0l68.7-35l7.7-3.9l15.9-8.1V32L115.2,40z M131,51.3l-88.4,45
	l-7.7,3.9L19,108.4v9.7l15.8-8l13.5-6.9L113.5,70c0.2,1.7,0.3,3.4,0.3,5.1c0,21.4-17.4,38.8-38.8,38.8c-6.6,0-13.2-1.7-18.9-5
	l-0.5,0.3l-8.4,4.3c21.2,15.4,50.8,10.7,66.2-10.5c5.9-8.1,9-17.8,9-27.8c0-1.2,0-2.4-0.1-3.6c-0.3-3.5,1.6-6.7,4.7-8.3l4-2.3V51.3z
	"></path>
</svg>
