<svg version="1.2" baseProfile="tiny" id="Layer_1" xmlns="http://www.w3.org/2000/svg" xmlns:xlink="http://www.w3.org/1999/xlink" x="0px" y="0px" viewBox="0 0 150 150" overflow="scroll" xml:space="preserve">
<circle fill="#4B52B4" cx="75" cy="75" r="75"></circle>
  <circle fill="#FFFFFF" cx="75" cy="75" r="65"></circle>
  <path fill="#4B52B4" d="M113.7,98.7c-1.1-19.9-26.1-28.9-28.5-29.8c-0.1,0-0.1-0.1,0-0.2L111,42.8V40c0-0.5-0.4-0.8-0.8-0.8H62.6
	V23.6l0,0v-4.7l-17.5,3.7v2.6h1c0,0,4.3,0,4.3,4.3v9.6H36.8c-0.3,0-0.5,0.2-0.5,0.5v6.1h14.1v33.1c0,10.4,6.7,17.6,18.4,16.6
	c2.4-0.2,4.7-1.1,6.7-2.4c0.9-0.6,1.4-1.5,1.4-2.6v-3.3c-3.8,2.5-7,2.4-7,2.4c-7.4,0-7.3-9.4-7.3-9.4V45.7h34.2L72.2,70.5
	c0,3.3-0.1,5.8-0.1,5.9s0,0.1,0.1,0.1l0,0c22.5,3.8,28.6,18.4,28.6,22.6c0,0,2.4,20.6-18.2,22.1c0,0-13.5,0.6-15.9-4.8
	c-0.1-0.2,0-0.4,0.2-0.5l0,0c2.3-1,3.8-3.2,3.8-5.7c0-4-2.4-7.3-7.6-7.3c-4.1,0-7.6,3.3-7.6,7.3c0,0-2,17.4,27,16.9
	C115.7,126.5,113.7,98.7,113.7,98.7z"></path>
</svg>
