<svg version="1.2" baseProfile="tiny" id="Layer_1" xmlns="http://www.w3.org/2000/svg" xmlns:xlink="http://www.w3.org/1999/xlink" x="0px" y="0px" viewBox="0 0 150 150" overflow="scroll" xml:space="preserve">
<circle fill="#FF007A" cx="75" cy="75" r="75"></circle>
  <circle fill="#FFFFFF" cx="75" cy="75" r="65"></circle>
  <path fill="#FF007A" d="M108,24.1c-0.6,1.6-0.7,3.8-0.3,6.4c0.5,3.3,0.7,3.7,4.2,7.3c1.6,1.7,3.5,3.8,4.2,4.6l1.2,1.6l-1.2-1.2
	c-1.5-1.5-5-4.2-5.8-4.6c-0.5-0.3-0.6-0.3-0.9,0.1c-0.3,0.3-0.4,0.7-0.4,2.8c-0.1,3.3-0.5,5.3-1.6,7.4c-0.6,1.1-0.7,0.9-0.1-0.4
	c0.4-0.9,0.4-1.4,0.4-4.5c0-6.3-0.7-7.8-5.2-10.4c-1.1-0.7-3-1.6-4.1-2.1c-1.2-0.5-2-0.9-2-0.9c0.1-0.1,4.4,1.1,6.1,1.8
	c2.5,1,3,1.1,3.3,1c0.2-0.2,0.4-0.8,0.4-2.6c0.1-2.8,0.5-4.6,1.3-6.2c0.3-0.7,0.6-1.2,0.7-1.2C108.4,23.1,108.2,23.6,108,24.1z
	 M65.2,109.4c2.5-1.2,5.9-0.9,8.5,0.8c3,2,4.3,3.7,6.8,9.6c0.9,2,1.9,4.1,2.4,4.8c2.4,3.6,5.4,5.4,8.9,5.4c2,0,3.4-0.3,5.2-1.2
	c1.3-0.7,3.3-2,3.1-2.1c0-0.1-0.6,0.1-1.2,0.4c-3.8,1.5-7.8,1.4-10-0.3c-1.5-1.1-2.6-3.1-3.2-5.7c-0.1-0.4-0.4-2.5-0.7-4.4
	c-0.8-5-1.6-7.3-3.3-9.9c-1.8-2.7-5.3-4.9-9.1-5.9c-2.4-0.7-6.7-0.8-9.4-0.4c-6.1,1-12.7,4.2-18.1,8.7l-1.5,1.5l1.4,0.2
	c7.3,1.1,9.2,2.1,14.3,7.3c2.9,3,3.9,3.6,6.3,4.3c3.6,0.9,7-0.7,8.3-3.9c0.5-1.5,0.4-3.8-0.1-4.9c-1.5-2.8-5.7-3.7-7.8-1.7
	c-1.7,1.7-1.2,4.3,0.9,4.7c0.4,0.1,0.4,0.1-0.1-0.2c-0.9-0.4-1.4-1-1.4-2c-0.1-2.2,2.5-3.4,4.8-2.4c1.7,0.8,2.4,1.8,2.4,3.6
	c0,2.7-2.3,4.8-5,4.4c-1.5-0.2-3.2-1.1-4.1-2.2C61,115.3,61.9,111,65.2,109.4z M76.4,32.8l-1.9,0.3l-1.3-1.5c-5-5.6-9.7-8.8-14.9-10
	C56,21,52.8,20.7,51.4,21c-0.7,0.1-0.7,0.1,0.9,0.4c5.6,0.9,9.9,3,14.1,7.2c2,1.9,3.9,4.1,7,8.3c7,9.4,10.1,11.9,16,13.9
	c3.5,1.2,7,1.7,13.3,2c6.9,0.4,9.5,0.9,12,2.5c1.4,0.9,2.4,2,3.5,3.7l0.7,0.9l-0.1-1.1c-0.4-4.1-3.3-9.8-7-13.9l-0.7-0.7l-0.4,1.5
	c-0.9,3.8-2.7,6.6-4.4,6.6c-0.8,0-1.7-0.5-2-1.2c-0.4-0.9-0.4-1.2,0.2-2.3c1.1-2,1.3-4.5,0.8-7.9c-0.1-0.9-0.4-1.9-0.5-2
	c-0.4-0.4-3.3-2.2-5.2-3C92.7,32.5,84.5,31.5,76.4,32.8z M24.6,106.4c-2-3-2.8-4.5-3.5-6.8c-0.8-2.6-1.1-4.4-0.9-7.1
	c0.1-2.6,0.4-3.8,1.5-5.8c0.8-1.7,1.3-2.4,4.6-6.5c5.6-6.9,7.5-11,8.3-16.7c0.7-5.2,1.5-7.6,3.5-9.8c1.2-1.3,1.5-1.8,1.5-2.8
	c0-0.4-1.8-4-7.4-13.9c-8.9-15.8-8.9-15.8-8.6-15.7c0.1,0.1,4.2,6.4,9.1,14c6.4,9.9,9.2,14.1,9.9,14.7c0.9,0.9,2.3,1.5,3.5,1.5
	c1,0,3.1-0.6,4.1-1.2c1.8-1,2.2-2.4,1.2-3.8C50.6,45.4,39.6,32,27.5,17.1c0.5-0.4,1.1-0.8,1.6-1.3C41,29.4,53.6,43.2,55.3,45.2
	l0.9,1l-0.1,1.7c-0.1,2.2-0.8,3.8-2.5,5.3c-1.9,1.8-4.3,2.8-8,3.3c-2.2,0.3-3,0.7-4,1.7c-0.9,0.9-1.2,2.2-1.5,5.2
	c-0.4,4.8-0.9,6.7-3.2,11.5c-2.2,4.6-2.6,6.2-2.2,8.7c0.4,2.9,2.1,5.1,6,7.8c3,2,4.4,3.3,5.1,4.9c0.4,1,0.5,1.4,0.5,3
	c0,2.6-0.4,3.6-2.2,5.5c-2.8,3-8,5.5-14.2,7c-2.6,0.6-2.8,0.6-2.8,0C27.3,111,26.3,109,24.6,106.4z M25.1,92.3
	c0,0.3,0.1,0.6,0.6,0.7c0.7,0.4,0.7,0.7,0.2,1.5s-0.5,1.5,0.1,2c1,0.8,2.4,0.4,3.1-0.9c0.8-1.4,0.4-3.1-0.9-4
	C27,90.8,25.1,91.2,25.1,92.3z M65.7,45.8c-1.2-1.6-2.5-4.1-2.9-5.2c-0.2-0.7-0.7-2.7-1.1-4.4c-1.2-5.9-2.5-8.3-5.4-10.1
	c-1.1-0.7-3.3-1.5-4.6-1.7L51,24.3l-0.1,1.5c-0.4,4.9,1.5,11.4,4.6,15.6c2.4,3.3,6.1,5.8,8.9,6.1C66,47.6,66.5,47,65.7,45.8z
	 M110.9,59.3c-2.8-0.9-5.8-1.5-11.1-2.3c-9.1-1.3-12.3-2.3-15.2-4.6c-0.7-0.5-1.2-0.9-1.2-0.9s-0.1,1-0.1,2.2
	c0,8.5,5.1,13.5,19.4,19.3c9.6,3.8,13.5,5.8,16.5,8.4c2.5,2.2,4.1,5.2,4.2,8.2c0,0.6,0.1,0.9,0.2,0.9c0.4-0.1,1.8-3.4,2.3-5.2
	c0.6-2.3,0.8-6.7,0.4-9.1C125.1,68.1,119.6,62.2,110.9,59.3z M109.6,119.7c0.1,0,0.7-0.3,1.5-0.7c5.3-2.8,8.9-7.8,10.5-13.9
	c0.5-2,0.7-6.7,0.4-8.6c-0.6-3.5-1.8-6.3-3.8-8.8c-2.3-2.8-5.7-5.3-11.5-8.5c-4.6-2.5-6.5-3.6-7.3-4.1c-0.4-0.3-0.9-0.5-1-0.5
	S98.1,75,98,75.3c-1,3.7-0.6,7.6,1.3,11.8c1,2.1,2,3.6,5.9,9.4c3.3,5,5,8,5.8,10.4c1.3,4,1.1,7.5-0.7,11.2
	C109.8,119,109.5,119.7,109.6,119.7z M58.6,57.4c1.2-0.4,3.4-0.1,4.5,0.4c2.1,1.1,3.6,3.5,3.3,5.2c-0.4,2.1-3.8,3.8-7.8,3.8
	c-2,0-2.8-0.3-3.6-1.3c-0.5-0.7-0.7-2.8-0.4-3.9C55.1,59.8,56.8,58,58.6,57.4z M57.5,60.3c0,0.9,1.5,2,3,2c0.9,0,2.2-0.6,2.7-1.2
	c0.6-0.9,0.4-1.8-0.7-2.5C60.5,57.4,57.5,58.4,57.5,60.3z M82.9,89.9c-0.7,0.3-3.6,0.9-6.5,1.3c-5.7,1-8.3,1.7-10.9,2.9
	c-1.8,0.9-4.1,2.2-3.9,2.3c0.1,0.1,0.5-0.1,0.9-0.2c3.3-1.2,6.9-1.7,12.3-2c2.2-0.1,4.6-0.4,5.5-0.4c4.9-0.7,8.3-2.1,10.9-4.8
	c1.5-1.5,2.3-2.9,3-4.9c0.4-1.2,0.5-1.7,0.5-3.9c0-2.2,0-2.7-0.5-4.1C93.7,74.3,93,73,92.1,72l-0.7-0.8l0.4,1.1c0.2,0.6,0.6,2,0.7,3
	C93.7,82.1,90.1,87.7,82.9,89.9z"></path>
</svg>
