<svg version="1.2" baseProfile="tiny" id="Layer_1" xmlns="http://www.w3.org/2000/svg" xmlns:xlink="http://www.w3.org/1999/xlink" x="0px" y="0px" viewBox="0 0 150 150" overflow="scroll" xml:space="preserve">
<circle fill="#466BEE" cx="75" cy="75" r="75"></circle>
  <path fill="#FFFFFF" d="M102.4,89.5c0-14.5-8.7-19.5-26.2-21.6c-12.5-1.7-15-5-15-10.8s4.2-9.6,12.5-9.6c7.5,0,11.6,2.5,13.7,8.7
	c0.4,1.2,1.7,2.1,2.9,2.1H97c1.7,0,2.9-1.2,2.9-2.9V55c-1.7-9.1-9.1-16.2-18.7-17V28c0-1.7-1.2-2.9-3.3-3.3h-6.2
	c-1.7,0-2.9,1.2-3.3,3.3v9.6C55.9,39.3,48,47.6,48,58c0,13.7,8.3,19.1,25.8,21.2c11.6,2.1,15.4,4.6,15.4,11.2s-5.8,11.2-13.7,11.2
	c-10.8,0-14.5-4.6-15.8-10.8c-0.4-1.7-1.7-2.5-2.9-2.5h-7.1c-1.7,0-2.9,1.2-2.9,2.9v0.4c1.7,10.4,8.3,17.9,22,19.9v10
	c0,1.7,1.2,2.9,3.3,3.3h6.2c1.7,0,2.9-1.2,3.3-3.3v-10C94.1,109.5,102.4,100.8,102.4,89.5L102.4,89.5z"></path>
  <g>
	<path fill="#EBEDF6" d="M10,75c0-28.5,18.4-52.8,44-61.5c1.5-0.5,2.5-2,2.5-3.6v-4c0-1.8-1.7-3.1-3.5-2.6C22.3,12.7,0,41.2,0,75
		s22.3,62.3,53,71.7c1.7,0.5,3.5-0.8,3.5-2.6V140c0-1.6-1-3.1-2.5-3.6C28.4,127.8,10,103.5,10,75z"></path>
    <path fill="#EBEDF6" d="M97,3.3c-1.7-0.5-3.5,0.8-3.5,2.6V10c0,1.6,1,3.1,2.5,3.6c25.6,8.7,44,33,44,61.5s-18.4,52.8-44,61.5
		c-1.5,0.5-2.5,2-2.5,3.6v4.1c0,1.8,1.7,3.1,3.5,2.6c30.7-9.4,53-37.9,53-71.7C150,41.2,127.7,12.7,97,3.3z"></path>
</g>
</svg>
